<svg width="24" height="26" viewBox="0 0 24 26" fill="none" xmlns="http://www.w3.org/2000/svg">
<g clip-path="url(#clip0_2_56)">
<path d="M0 5.87382C0 5.36047 0.422239 4.94432 0.943101 4.94432H7.13128C7.13968 3.84964 7.25751 2.3489 8.33644 1.30999C9.18559 0.492397 10.3497 -0.0130157 11.6316 -0.0130157C12.9135 -0.0130157 14.0776 0.492397 14.9267 1.30999C16.0056 2.3489 16.1234 3.84964 16.1318 4.94432H22.3201C22.8409 4.94432 23.2632 5.36047 23.2632 5.87382C23.2632 6.38717 22.8409 6.80333 22.3201 6.80333H0.943101C0.422239 6.80333 0 6.38717 0 5.87382Z" fill="white"/>
<path d="M11.1231 26.013H12.1401C15.6393 26.013 17.3888 26.013 18.5264 24.8897C19.6639 23.7665 19.7804 21.9238 20.0131 18.2387L20.3485 12.9287C20.4748 10.9291 20.5379 9.92941 19.9673 9.29588C19.3965 8.66234 18.4328 8.66234 16.5054 8.66234H6.75772C4.83031 8.66234 3.86661 8.66234 3.29593 9.29588C2.72526 9.92941 2.7884 10.9291 2.9147 12.9287L3.25009 18.2387C3.48285 21.9238 3.59923 23.7665 4.73678 24.8897C5.87434 26.013 7.62391 26.013 11.1231 26.013Z" fill="white"/>
</g>
<defs>
<clipPath id="clip0_2_56">
<rect width="23.2632" height="26" fill="white"/>
</clipPath>
</defs>
</svg>
