<svg width="26" height="26" viewBox="0 0 26 26" fill="none" xmlns="http://www.w3.org/2000/svg">
<path d="M12.948 0.920509H7.74803C4.47962 0.920509 2.84542 0.92051 1.83007 1.93791C0.814698 2.9553 0.814697 4.59278 0.814697 7.86774V18.2886C0.814697 21.5635 0.814698 23.201 1.83007 24.2184C2.84542 25.2358 4.47962 25.2358 7.74803 25.2358H18.148C21.4164 25.2358 23.0506 25.2358 24.066 24.2184C25.0814 23.201 25.0814 21.5635 25.0814 18.2886V13.0782M8.30095 14.2785L18.5789 4.09544C19.3988 3.28328 20.7037 3.23849 21.5769 3.9925C22.5387 4.82291 22.6067 6.29244 21.7256 7.20834L11.6184 17.7158L7.74803 18.2886L8.30095 14.2785Z" stroke="white" stroke-width="3" stroke-linecap="round" stroke-linejoin="round"/>
</svg>
